:FULLY-SPECIFIED
:FORCE-ALL-JOINTS-BE-3DOF
:DEGREES
1019
root 1.14726 15.1606 32.4378 4.84057 -3.38535 3.57229
lfemur 8.40287 0.4202 5.731
ltibia 0 -0 0
lfoot -30.1344 -10.9919 -1.5958e-06
ltoes -34.4161 0 0
rfemur -31.5306 -15.9582 -6.03189
rtibia 50.1716 -0 0
rfoot -22.4247 4.61069 0.000128017
rtoes -42.714 0 0
lowerback -1.42355 -0.168048 0.310036
upperback -0.509505 -0.211762 -5.91816
thorax 0.250977 -0.112468 -6.31458
lowerneck -7.21667 0.914805 6.20663
upperneck 1.60686 0.537313 3.45664
head 1.73893 0.401101 0.0554059
lclavicle -0 0 0
lhumerus -58.5897 -46.392 115.218
lradius 55.7308 -0 0
lwrist 25.2901 0 0
lhand 37.2328 24.8817 9.68449e-06
lfingers 0 -0 0
lthumb 60.0644 38.5942 7.4332e-06
rclavicle -0 0 0
rhumerus 2.77597 -23.8464 0.267606
rradius 27.6803 -0 0
rwrist -10.299 0 0
rhand -30.732 -42.9387 4.09619e-05
rfingers 0 -0 0
rthumb -4.02428 -72.8806 3.93948e-05
1020
root 1.14752 15.1605 32.4402 4.84172 -3.38254 3.55971
lfemur 8.41155 0.418591 5.74381
ltibia 0 -0 0
lfoot -30.1382 -10.9878 -1.5958e-06
ltoes -34.4249 0 0
rfemur -31.5273 -15.9529 -6.02436
rtibia 50.1804 -0 0
rfoot -22.3965 4.65404 0.000128017
rtoes -42.6422 0 0
lowerback -1.43338 -0.159723 0.291125
upperback -0.513334 -0.200204 -5.92537
thorax 0.253893 -0.106651 -6.31121
lowerneck -7.21763 0.909755 6.23091
upperneck 1.62592 0.527106 3.46485
head 1.74532 0.397079 0.0535769
lclavicle -0 0 0
lhumerus -58.6078 -46.4158 115.234
lradius 55.7426 -0 0
lwrist 25.2889 0 0
lhand 37.236 24.9106 9.68449e-06
lfingers 0 -0 0
lthumb 60.0671 38.6203 7.4332e-06
rclavicle -0 0 0
rhumerus 2.76412 -23.8412 0.268731
rradius 27.6723 -0 0
rwrist -10.2673 0 0
rhand -30.7243 -42.8873 4.09619e-05
rfingers 0 -0 0
rthumb -4.01693 -72.8294 3.93948e-05
1021
root 1.14779 15.1603 32.4425 4.84286 -3.37973 3.54714
lfemur 8.42022 0.41698 5.75662
ltibia 0 -0 0
lfoot -30.1419 -10.9837 -1.32983e-06
ltoes -34.4338 0 0
rfemur -31.5241 -15.9475 -6.01683
rtibia 50.1892 -0 0
rfoot -22.3683 4.69739 0.000106681
rtoes -42.5704 0 0
lowerback -1.44322 -0.151401 0.272213
upperback -0.517164 -0.188646 -5.93258
thorax 0.256808 -0.100834 -6.30785
lowerneck -7.21859 0.904705 6.25519
upperneck 1.64497 0.516895 3.47306
head 1.7517 0.393057 0.0517475
lclavicle -0 0 0
lhumerus -58.626 -46.4396 115.25
lradius 55.7544 -0 0
lwrist 25.2877 0 0
lhand 37.2392 24.9395 8.0704e-06
lfingers 0 -0 0
lthumb 60.0698 38.6463 6.19433e-06
rclavicle -0 0 0
rhumerus 2.75227 -23.836 0.269855
rradius 27.6644 -0 0
rwrist -10.2356 0 0
rhand -30.7167 -42.8359 3.41349e-05
rfingers 0 -0 0
rthumb -4.00957 -72.7783 3.2829e-05
1022
root 1.14805 15.1601 32.4449 4.844 -3.37692 3.53457
lfemur 8.4289 0.415368 5.76943
ltibia 0 -0 0
lfoot -30.1457 -10.9797 -7.979e-07
ltoes -34.4426 0 0
rfemur -31.5209 -15.9422 -6.0093
rtibia 50.198 -0 0
rfoot -22.3401 4.74074 6.40084e-05
rtoes -42.4986 0 0
lowerback -1.45306 -0.143082 0.253299
upperback -0.520996 -0.177089 -5.9398
thorax 0.259725 -0.0950169 -6.30449
lowerneck -7.21956 0.899656 6.27948
upperneck 1.66403 0.506682 3.48126
head 1.75809 0.389036 0.0499177
lclavicle -0 0 0
lhumerus -58.6443 -46.4633 115.266
lradius 55.7663 -0 0
lwrist 25.2866 0 0
lhand 37.2424 24.9684 4.84224e-06
lfingers 0 -0 0
lthumb 60.0726 38.6723 3.7166e-06
rclavicle -0 0 0
rhumerus 2.74041 -23.8307 0.270978
rradius 27.6564 -0 0
rwrist -10.2039 0 0
rhand -30.7091 -42.7846 2.04809e-05
rfingers 0 -0 0
rthumb -4.00222 -72.7271 1.96974e-05
1023
root 1.14832 15.1599 32.4472 4.84514 -3.37411 363.522
lfemur 8.43757 0.413753 5.78224
ltibia 1.11319e-14 0 0
lfoot -30.1494 -10.9756 0
ltoes -34.4515 0 0
rfemur -31.5177 -15.9368 -6.00177
rtibia 50.2068 0 0
rfoot -22.3119 4.78409 0
rtoes -42.4268 0 0
lowerback -1.4629 -0.134767 0.234384
upperback -0.524829 -0.165532 -5.94701
thorax 0.262641 -0.0892001 -6.30112
lowerneck -7.22052 0.894607 6.30376
upperneck 1.68308 0.496466 3.48946
head 1.76447 0.385014 0.0480874
lclavicle -9.74045e-15 -1.74931e-14 0
lhumerus -58.6625 -46.4871 115.282
lradius 55.7781 0 0
lwrist 25.2854 0 0
lhand 37.2456 24.9973 0
lfingers 7.12502 0 0
lthumb 60.0753 38.6983 0
rclavicle -9.74045e-15 -1.74931e-14 0
rhumerus 2.72856 -23.8255 0.272099
rradius 27.6485 0 0
rwrist -10.1722 0 0
rhand -30.7015 -42.7332 0
rfingers 7.12502 0 0
rthumb -3.99486 -792.676 0
1024
root 1.14972 15.1597 32.4504 4.8421 -3.38366 3.51971
lfemur 8.45869 0.421036 5.78012
ltibia 0 -0 0
lfoot -30.1542 -10.9863 2.6732e-06
ltoes -34.4423 0 0
rfemur -31.5109 -15.9505 -6.00925
rtibia 50.2076 -0 0
rfoot -22.2877 4.8718 0.00011114
rtoes -42.3261 0 0
lowerback -1.47678 -0.127259 0.214632
upperback -0.522839 -0.15462 -5.95757
thorax 0.273717 -0.0835079 -6.30086
lowerneck -7.2073 0.891944 6.32148
upperneck 1.67634 0.492224 3.50496
head 1.75986 0.383044 0.0498099
lclavicle 0 0 0
lhumerus -58.6635 -46.5147 115.29
lradius 55.7697 -0 0
lwrist 25.2846 0 0
lhand 37.2593 25.0117 1.0308e-05
lfingers 0 -0 0
lthumb 60.087 38.7003 1.23247e-06
rclavicle 0 0 0
rhumerus 2.72175 -23.8255 0.26827
rradius 27.6257 -0 0
rwrist -10.1371 0 0
rhand -30.6861 -42.7177 1.251e-05
rfingers 0 -0 0
rthumb -3.97997 -72.6607 1.1915e-05
1025
root 1.15112 15.1596 32.4537 4.83907 -3.39321 3.51743
lfemur 8.47982 0.42832 5.778
ltibia 0 -0 0
lfoot -30.1589 -10.997 4.45533e-06
ltoes -34.433 0 0
rfemur -31.504 -15.9642 -6.01674
rtibia 50.2085 -0 0
rfoot -22.2635 4.95951 0.000185234
rtoes -42.2255 0 0
lowerback -1.49066 -0.119755 0.194878
upperback -0.520851 -0.143709 -5.96813
thorax 0.284793 -0.0778157 -6.3006
lowerneck -7.19409 0.889278 6.33921
upperneck 1.66959 0.487983 3.52047
head 1.75524 0.381074 0.0515325
lclavicle 0 0 0
lhumerus -58.6646 -46.5423 115.299
lradius 55.7613 -0 0
lwrist 25.2839 0 0
lhand 37.2729 25.0261 1.718e-05
lfingers 0 -0 0
lthumb 60.0987 38.7023 2.05411e-06
rclavicle 0 0 0
rhumerus 2.71495 -23.8255 0.264441
rradius 27.6029 -0 0
rwrist -10.102 0 0
rhand -30.6706 -42.7022 2.08499e-05
rfingers 0 -0 0
rthumb -3.96509 -72.6454 1.98584e-05
1026
root 1.15252 15.1594 32.4569 4.83604 -3.40276 3.51514
lfemur 8.50094 0.435605 5.77588
ltibia 0 -0 0
lfoot -30.1637 -11.0077 5.34639e-06
ltoes -34.4238 0 0
rfemur -31.4972 -15.9779 -6.02423
rtibia 50.2093 -0 0
rfoot -22.2393 5.04722 0.00022228
rtoes -42.1248 0 0
lowerback -1.50455 -0.112256 0.175122
upperback -0.518865 -0.132796 -5.9787
thorax 0.29587 -0.0721235 -6.30034
lowerneck -7.18088 0.886607 6.35693
upperneck 1.66285 0.483744 3.53597
head 1.75063 0.379104 0.0532552
lclavicle 0 0 0
lhumerus -58.6656 -46.5699 115.307
lradius 55.7529 -0 0
lwrist 25.2831 0 0
lhand 37.2866 25.0405 2.0616e-05
lfingers 0 -0 0
lthumb 60.1104 38.7043 2.46493e-06
rclavicle 0 0 0
rhumerus 2.70814 -23.8255 0.260612
rradius 27.5801 -0 0
rwrist -10.0669 0 0
rhand -30.6552 -42.6867 2.50199e-05
rfingers 0 -0 0
rthumb -3.9502 -72.6301 2.38301e-05
1027
root 1.15391 15.1593 32.4601 4.833 -3.41231 3.51285
lfemur 8.52206 0.44289 5.77377
ltibia 0 -0 0
lfoot -30.1685 -11.0184 5.34639e-06
ltoes -34.4145 0 0
rfemur -31.4903 -15.9917 -6.03172
rtibia 50.2101 -0 0
rfoot -22.2151 5.13494 0.00022228
rtoes -42.0242 0 0
lowerback -1.51843 -0.104762 0.155364
upperback -0.516881 -0.121884 -5.98926
thorax 0.306946 -0.0664315 -6.30008
lowerneck -7.16766 0.883932 6.37465
upperneck 1.6561 0.479507 3.55148
head 1.74601 0.377134 0.0549782
lclavicle 0 0 0
lhumerus -58.6666 -46.5974 115.316
lradius 55.7445 -0 0
lwrist 25.2823 0 0
lhand 37.3003 25.0549 2.0616e-05
lfingers 0 -0 0
lthumb 60.122 38.7064 2.46493e-06
rclavicle 0 0 0
rhumerus 2.70133 -23.8255 0.256783
rradius 27.5573 -0 0
rwrist -10.0319 0 0
rhand -30.6398 -42.6713 2.50199e-05
rfingers 0 -0 0
rthumb -3.93531 -72.6149 2.38301e-05
1028
root 1.15531 15.1591 32.4633 4.82997 -3.42187 3.51057
lfemur 8.54319 0.450176 5.77166
ltibia 0 -0 0
lfoot -30.1733 -11.0291 4.45533e-06
ltoes -34.4053 0 0
rfemur -31.4835 -16.0054 -6.03921
rtibia 50.2109 -0 0
rfoot -22.1909 5.22265 0.000185234
rtoes -41.9235 0 0
lowerback -1.53232 -0.097273 0.135605
upperback -0.5149 -0.110971 -5.99982
thorax 0.318022 -0.0607394 -6.29982
lowerneck -7.15445 0.881253 6.39237
upperneck 1.64935 0.475272 3.56699
head 1.7414 0.375165 0.0567013
lclavicle 0 0 0
lhumerus -58.6677 -46.625 115.324
lradius 55.7361 -0 0
lwrist 25.2815 0 0
lhand 37.314 25.0693 1.718e-05
lfingers 0 -0 0
lthumb 60.1337 38.7084 2.05411e-06
rclavicle 0 0 0
rhumerus 2.69452 -23.8255 0.252954
rradius 27.5345 -0 0
rwrist -9.99677 0 0
rhand -30.6244 -42.6558 2.08499e-05
rfingers 0 -0 0
rthumb -3.92042 -72.5996 1.98584e-05
1029
root 1.15671 15.159 32.4666 4.82693 -3.43142 3.50828
lfemur 8.56431 0.457463 5.76955
ltibia 0 -0 0
lfoot -30.178 -11.0398 2.6732e-06
ltoes -34.396 0 0
rfemur -31.4766 -16.0191 -6.0467
rtibia 50.2118 -0 0
rfoot -22.1667 5.31036 0.00011114
rtoes -41.8229 0 0
lowerback -1.54622 -0.0897885 0.115843
upperback -0.51292 -0.100057 -6.01038
thorax 0.329099 -0.0550474 -6.29955
lowerneck -7.14124 0.87857 6.41009
upperneck 1.6426 0.471039 3.58249
head 1.73678 0.373195 0.0584245
lclavicle 0 0 0
lhumerus -58.6687 -46.6526 115.333
lradius 55.7277 -0 0
lwrist 25.2808 0 0
lhand 37.3276 25.0837 1.0308e-05
lfingers 0 -0 0
lthumb 60.1454 38.7104 1.23247e-06
rclavicle 0 0 0
rhumerus 2.68772 -23.8255 0.249125
rradius 27.5117 -0 0
rwrist -9.96169 0 0
rhand -30.6089 -42.6403 1.251e-05
rfingers 0 -0 0
rthumb -3.90554 -72.5843 1.1915e-05
1030
root 1.15811 15.1588 32.4698 4.8239 -3.44097 363.506
lfemur 8.58543 0.464751 5.76744
ltibia -2.06736e-14 0 0
lfoot -30.1828 -11.0505 0
ltoes -34.3868 0 0
rfemur -31.4698 -16.0328 -6.0542
rtibia 50.2126 0 0
rfoot -22.1425 5.39807 0
rtoes -41.7222 0 0
lowerback -1.56011 -0.0823089 0.0960802
upperback -0.510942 -0.0891438 -6.02094
thorax 0.340175 -0.0493555 -6.29929
lowerneck -7.12803 0.875883 6.42781
upperneck 1.63585 0.466807 3.598
head 1.73217 0.371226 0.0601479
lclavicle 1.31198e-14 3.18055e-14 0
lhumerus -58.6698 -46.6802 115.341
lradius 55.7193 0 0
lwrist 25.28 0 0
lhand 37.3413 25.0981 0
lfingers 7.12502 0 0
lthumb 60.1571 38.7124 0
rclavicle 1.31198e-14 3.18055e-14 0
rhumerus 2.68091 -23.8255 0.245296
rradius 27.4889 0 0
rwrist -9.9266 0 0
rhand -30.5935 -42.6248 0
rfingers 7.12502 0 0
rthumb -3.89065 -792.569 0
1031
root 1.16066 15.1585 32.4731 4.82827 -3.43739 3.50857
lfemur 8.58879 0.463528 5.75862
ltibia 0 -0 0
lfoot -30.1946 -11.0674 1.04301e-05
ltoes -34.366 0 0
rfemur -31.461 -16.0699 -6.06923
rtibia 50.2096 -0 0
rfoot -22.1307 5.47305 4.62122e-05
rtoes -41.6518 0 0
lowerback -1.57271 -0.0829578 0.0795917
upperback -0.507802 -0.0891645 -6.02215
thorax 0.350514 -0.0491612 -6.29115
lowerneck -7.11795 0.873503 6.43261
upperneck 1.60552 0.465965 3.58903
head 1.72047 0.36942 0.0564044
lclavicle -0 0 0
lhumerus -58.6791 -46.6998 115.344
lradius 55.7325 -0 0
lwrist 25.3237 0 0
lhand 37.3398 25.1049 -5.39157e-07
lfingers 0 -0 0
lthumb 60.1558 38.7206 -5.57184e-07
rclavicle -0 0 0
rhumerus 2.67531 -23.8334 0.265315
rradius 27.4846 -0 0
rwrist -9.91328 0 0
rhand -30.5981 -42.602 -5.52908e-06
rfingers 0 -0 0
rthumb -3.89511 -72.5461 -5.33259e-06
1032
root 1.16322 15.1583 32.4763 4.83263 -3.4338 3.51114
lfemur 8.59215 0.462306 5.7498
ltibia 0 -0 0
lfoot -30.2063 -11.0844 1.73834e-05
ltoes -34.3452 0 0
rfemur -31.4521 -16.107 -6.08426
rtibia 50.2066 -0 0
rfoot -22.119 5.54802 7.70205e-05
rtoes -41.5814 0 0
lowerback -1.5853 -0.0836103 0.0631033
upperback -0.504662 -0.0891852 -6.02337
thorax 0.360853 -0.0489683 -6.283
lowerneck -7.10787 0.871121 6.43741
upperneck 1.57518 0.465118 3.58006
head 1.70878 0.367614 0.0526614
lclavicle -0 0 0
lhumerus -58.6885 -46.7194 115.347
lradius 55.7456 -0 0
lwrist 25.3675 0 0
lhand 37.3383 25.1117 -8.98595e-07
lfingers 0 -0 0
lthumb 60.1545 38.7288 -9.2864e-07
rclavicle -0 0 0
rhumerus 2.66971 -23.8414 0.285337
rradius 27.4804 -0 0
rwrist -9.89995 0 0
rhand -30.6028 -42.5792 -9.21513e-06
rfingers 0 -0 0
rthumb -3.89956 -72.5233 -8.88765e-06
